# xmcd CD database file
#
# Track frame offsets:
#	150
#	21450
#	37125
#	57900
#	66750
#	90225
#	110175
#	138975
#	162852
#	175970
#	188250
#	221625
#	265875
#	283575
#
# Disc length: 4570 seconds
#
# Revision: 0
# Processed by: cddbd v1.5PL3 Copyright (c) Steve Scherf et al.
# Submitted via: CDex 1.51
#
DISCID=cb11d80e
DTITLE=Milt Hinton - Old Man Time, CD 1
DYEAR=1990
DGENRE=Jazz
TTITLE0=Old Man Time
TTITLE1=Time After Time
TTITLE2=Sometimes I'm Happy
TTITLE3=A Hot Time in the Old Town Tonight
TTITLE4=Four or Five Times
TTITLE5=Now's the Time
TTITLE6=Time On My Hands
TTITLE7=Heart of My Heart
TTITLE8=I Ain't Gonna Give Nobody None O' This Jelly Roll
TTITLE9=Mama Don't Allow It
TTITLE10=Girl of My Dreams
TTITLE11=This Time It's Us
TTITLE12=Good Time Charlie
TTITLE13=Jazzspeak #1
EXTD=YEAR: 1990
EXTT0=
EXTT1=
EXTT2=
EXTT3=
EXTT4=
EXTT5=
EXTT6=
EXTT7=
EXTT8=
EXTT9=
EXTT10=
EXTT11=
EXTT12=
EXTT13=
PLAYORDER=
